<svg xmlns="http://www.w3.org/2000/svg" version="1.1" xmlns:xlink="http://www.w3.org/1999/xlink" xmlns:svgjs="http://svgjs.com/svgjs" width="1000" height="1000"><rect width="1000" height="1000" rx="100" ry="100" fill="#0f4032"></rect><g transform="matrix(7.954545454545454,0,0,7.954545454545454,149.87697033990514,231.88423640077764)"><svg xmlns="http://www.w3.org/2000/svg" version="1.1" xmlns:xlink="http://www.w3.org/1999/xlink" xmlns:svgjs="http://svgjs.com/svgjs" width="88" height="67"><svg width="88" height="67" viewBox="0 0 88 67" fill="none" xmlns="http://www.w3.org/2000/svg">
<path d="M17.9258 66.2356H18.4258V65.7356V1.7356V1.2356H17.9258H1.50778H1.00778V1.7356V65.7356V66.2356H1.50778H17.9258ZM64.4298 1.2356H64.1262L63.9862 1.50495L53.0619 22.5169L42.4041 1.50938L42.2652 1.2356H41.9582H22.7885H21.9289L22.3539 1.9828L40.4653 33.8253L22.3545 65.4873L21.9265 66.2356H22.7885H41.9582H42.2646L42.4037 65.9626L53.0619 45.0411L63.9866 65.967L64.1268 66.2356H64.4298H83.5078H84.3677L83.9423 65.4883L65.9219 33.8253L83.9429 1.98186L84.3653 1.2356H83.5078H64.4298Z" stroke="white"></path>
<path d="M23.439 65.7003H7.51993V2.7356H23.439V65.7003Z" fill="#11B7D4"></path>
<path d="M68.5295 2.7356H87.0276L69.4188 34.3069L87.0276 65.7003H68.5295L57.5017 44.2674L46.7408 65.7003H28.1538L45.8515 34.3069L28.1538 2.7356H46.7408L57.5017 24.2574L68.5295 2.7356Z" fill="#11B7D4"></path>
</svg></svg></g></svg>